<svg width="1200" height="760" viewBox="0 0 1200 760" fill="none" xmlns="http://www.w3.org/2000/svg">
  <rect width="1200" height="760" rx="36" fill="#09090B"/>
  <rect x="32" y="32" width="1136" height="696" rx="28" fill="url(#paint0_linear_221_19)" stroke="#27272A"/>
  <rect x="72" y="72" width="250" height="616" rx="24" fill="#111114" stroke="#27272A"/>
  <rect x="102" y="110" width="92" height="12" rx="6" fill="#FAFAFA"/>
  <rect x="102" y="142" width="148" height="8" rx="4" fill="#52525B"/>
  <rect x="102" y="188" width="190" height="116" rx="20" fill="#18181B" stroke="#27272A"/>
  <rect x="122" y="212" width="86" height="10" rx="5" fill="#FAFAFA"/>
  <rect x="122" y="236" width="130" height="8" rx="4" fill="#71717A"/>
  <rect x="122" y="266" width="58" height="26" rx="13" fill="#0F766E"/>
  <text x="151" y="283" fill="#ECFEFF" font-family="Inter, Arial, sans-serif" font-size="12" text-anchor="middle">AI Match</text>
  <rect x="102" y="324" width="190" height="156" rx="20" fill="#18181B" stroke="#27272A"/>
  <rect x="122" y="348" width="104" height="10" rx="5" fill="#FAFAFA"/>
  <rect x="122" y="372" width="90" height="8" rx="4" fill="#71717A"/>
  <rect x="122" y="406" width="150" height="10" rx="5" fill="#27272A"/>
  <rect x="122" y="430" width="118" height="10" rx="5" fill="#27272A"/>
  <rect x="122" y="454" width="136" height="10" rx="5" fill="#27272A"/>
  <rect x="352" y="72" width="498" height="616" rx="24" fill="#101014" stroke="#27272A"/>
  <rect x="388" y="110" width="146" height="12" rx="6" fill="#FAFAFA"/>
  <rect x="388" y="142" width="214" height="8" rx="4" fill="#52525B"/>
  <rect x="388" y="186" width="426" height="140" rx="24" fill="url(#paint1_linear_221_19)"/>
  <circle cx="438" cy="256" r="36" fill="#0F766E" fill-opacity="0.28"/>
  <circle cx="480" cy="230" r="20" fill="#99F6E4"/>
  <circle cx="712" cy="222" r="14" fill="#22C55E"/>
  <rect x="428" y="212" width="150" height="12" rx="6" fill="#FAFAFA"/>
  <rect x="428" y="238" width="222" height="10" rx="5" fill="#D4D4D8" fill-opacity="0.75"/>
  <rect x="428" y="264" width="188" height="10" rx="5" fill="#D4D4D8" fill-opacity="0.6"/>
  <rect x="388" y="358" width="200" height="136" rx="20" fill="#18181B" stroke="#27272A"/>
  <rect x="616" y="358" width="198" height="136" rx="20" fill="#18181B" stroke="#27272A"/>
  <rect x="388" y="522" width="426" height="126" rx="20" fill="#18181B" stroke="#27272A"/>
  <rect x="414" y="384" width="94" height="10" rx="5" fill="#FAFAFA"/>
  <rect x="414" y="408" width="118" height="8" rx="4" fill="#71717A"/>
  <rect x="414" y="438" width="40" height="40" rx="12" fill="#0F766E" fill-opacity="0.22"/>
  <path d="M434 457L444 447L452 455L470 437" stroke="#5EEAD4" stroke-width="8" stroke-linecap="round" stroke-linejoin="round"/>
  <rect x="642" y="384" width="120" height="10" rx="5" fill="#FAFAFA"/>
  <rect x="642" y="408" width="94" height="8" rx="4" fill="#71717A"/>
  <rect x="642" y="438" width="146" height="10" rx="5" fill="#27272A"/>
  <rect x="642" y="460" width="118" height="10" rx="5" fill="#27272A"/>
  <rect x="414" y="548" width="150" height="10" rx="5" fill="#FAFAFA"/>
  <rect x="414" y="574" width="222" height="8" rx="4" fill="#71717A"/>
  <rect x="414" y="604" width="374" height="12" rx="6" fill="#27272A"/>
  <rect x="878" y="72" width="250" height="616" rx="24" fill="#111114" stroke="#27272A"/>
  <rect x="908" y="110" width="118" height="12" rx="6" fill="#FAFAFA"/>
  <rect x="908" y="142" width="160" height="8" rx="4" fill="#52525B"/>
  <rect x="908" y="188" width="190" height="198" rx="20" fill="#18181B" stroke="#27272A"/>
  <rect x="930" y="214" width="80" height="10" rx="5" fill="#FAFAFA"/>
  <rect x="930" y="240" width="92" height="8" rx="4" fill="#71717A"/>
  <rect x="930" y="274" width="146" height="16" rx="8" fill="#27272A"/>
  <rect x="930" y="306" width="102" height="16" rx="8" fill="#27272A"/>
  <rect x="930" y="338" width="132" height="16" rx="8" fill="#27272A"/>
  <rect x="908" y="414" width="190" height="170" rx="20" fill="#18181B" stroke="#27272A"/>
  <rect x="930" y="440" width="110" height="10" rx="5" fill="#FAFAFA"/>
  <rect x="930" y="466" width="136" height="8" rx="4" fill="#71717A"/>
  <rect x="930" y="504" width="146" height="48" rx="18" fill="#0F172A" stroke="#1E293B"/>
  <text x="1003" y="534" fill="#F8FAFC" font-family="Inter, Arial, sans-serif" font-size="20" text-anchor="middle">92% Match</text>
  <defs>
    <linearGradient id="paint0_linear_221_19" x1="600" y1="32" x2="600" y2="728" gradientUnits="userSpaceOnUse">
      <stop stop-color="#0A0A0D"/>
      <stop offset="1" stop-color="#10111A"/>
    </linearGradient>
    <linearGradient id="paint1_linear_221_19" x1="388" y1="186" x2="814" y2="326" gradientUnits="userSpaceOnUse">
      <stop stop-color="#134E4A"/>
      <stop offset="0.6" stop-color="#0F172A"/>
      <stop offset="1" stop-color="#1D4ED8"/>
    </linearGradient>
  </defs>
</svg>